<svg width="151" height="44" viewBox="0 0 151 44" fill="none" xmlns="http://www.w3.org/2000/svg">
<path fill-rule="evenodd" clip-rule="evenodd" d="M14.0126 42C21.7005 42 28 35.7005 28 28.0126C28 20.2991 21.7005 14 14.0126 14C6.29913 14 0 20.2991 0 28.0126C0 35.7005 6.29913 42 14.0126 42Z" fill="#FF57B2"/>
<path fill-rule="evenodd" clip-rule="evenodd" d="M6.12564 22.7546C13.3428 22.7546 19.2698 28.6568 19.2698 35.8739H23.6349C23.6349 26.2513 15.7479 18.3895 6.12564 18.3895V22.7546ZM8.50641 31.5088C9.72184 31.5088 10.689 32.476 10.689 33.6918C10.689 34.9067 9.72178 35.8739 8.50641 35.8739C7.29147 35.8739 6.32383 34.9067 6.32383 33.6918C6.32383 32.476 7.29147 31.5088 8.50641 31.5088ZM6.12564 28.8798C9.96957 28.8798 13.1194 32.03 13.1194 35.8739H17.5088C17.5088 29.624 12.4004 24.5156 6.1257 24.5156L6.12564 28.8798Z" fill="#1A1D23"/>
<path d="M44.0795 27.4318V35H40.4489V21.9091H43.9091V24.2188H44.0625C44.3523 23.4574 44.8381 22.8551 45.5199 22.4119C46.2017 21.9631 47.0284 21.7386 48 21.7386C48.9091 21.7386 49.7017 21.9375 50.3778 22.3352C51.054 22.733 51.5795 23.3011 51.9545 24.0398C52.3295 24.7727 52.517 25.6477 52.517 26.6648V35H48.8864V27.3125C48.892 26.5114 48.6875 25.8864 48.2727 25.4375C47.858 24.983 47.2869 24.7557 46.5597 24.7557C46.071 24.7557 45.6392 24.8608 45.2642 25.071C44.8949 25.2812 44.6051 25.5881 44.3949 25.9915C44.1903 26.3892 44.0852 26.8693 44.0795 27.4318ZM61.3445 35.2557C59.9979 35.2557 58.8388 34.983 57.8672 34.4375C56.9013 33.8864 56.157 33.108 55.6342 32.1023C55.1115 31.0909 54.8501 29.8949 54.8501 28.5142C54.8501 27.1676 55.1115 25.9858 55.6342 24.9688C56.157 23.9517 56.8928 23.1591 57.8416 22.5909C58.7962 22.0227 59.9155 21.7386 61.1996 21.7386C62.0632 21.7386 62.8672 21.8778 63.6115 22.1562C64.3615 22.429 65.0149 22.8409 65.5717 23.392C66.1342 23.9432 66.5717 24.6364 66.8842 25.4716C67.1967 26.3011 67.353 27.2727 67.353 28.3864V29.3835H56.299V27.1335H63.9354C63.9354 26.6108 63.8217 26.1477 63.5945 25.7443C63.3672 25.3409 63.0518 25.0256 62.6484 24.7983C62.2507 24.5653 61.7876 24.4489 61.2592 24.4489C60.7081 24.4489 60.2195 24.5767 59.7933 24.8324C59.3729 25.0824 59.0433 25.4205 58.8047 25.8466C58.5661 26.267 58.4439 26.7358 58.4382 27.2528V29.392C58.4382 30.0398 58.5575 30.5994 58.7962 31.071C59.0405 31.5426 59.3842 31.9062 59.8274 32.1619C60.2706 32.4176 60.7962 32.5455 61.4041 32.5455C61.8075 32.5455 62.1768 32.4886 62.5121 32.375C62.8473 32.2614 63.1342 32.0909 63.3729 31.8636C63.6115 31.6364 63.7933 31.358 63.9183 31.0284L67.2763 31.25C67.1058 32.0568 66.7564 32.7614 66.228 33.3636C65.7053 33.9602 65.0291 34.4261 64.1996 34.7614C63.3757 35.0909 62.424 35.2557 61.3445 35.2557ZM72.522 21.9091L74.9254 26.4858L77.3885 21.9091H81.1129L77.3203 28.4545L81.2152 35H77.5078L74.9254 30.4744L72.3857 35H68.6357L72.522 28.4545L68.772 21.9091H72.522ZM90.2322 21.9091V24.6364H82.3487V21.9091H90.2322ZM84.1385 18.7727H87.7692V30.9773C87.7692 31.3125 87.8203 31.5739 87.9226 31.7614C88.0249 31.9432 88.1669 32.071 88.3487 32.1449C88.5362 32.2187 88.7521 32.2557 88.9964 32.2557C89.1669 32.2557 89.3374 32.2415 89.5078 32.2131C89.6783 32.179 89.8089 32.1534 89.8999 32.1364L90.4709 34.8381C90.2891 34.8949 90.0334 34.9602 89.7038 35.0341C89.3743 35.1136 88.9737 35.1619 88.5021 35.179C87.6271 35.2131 86.8601 35.0966 86.201 34.8295C85.5476 34.5625 85.0391 34.1477 84.6754 33.5852C84.3118 33.0227 84.1328 32.3125 84.1385 31.4545V18.7727Z" fill="#F8F8F8"/>
<path d="M100.517 35V17.5455H104.148V24.108H104.259C104.418 23.7557 104.648 23.3977 104.949 23.0341C105.256 22.6648 105.653 22.358 106.142 22.1136C106.636 21.8636 107.25 21.7386 107.983 21.7386C108.938 21.7386 109.818 21.9886 110.625 22.4886C111.432 22.983 112.077 23.7301 112.56 24.7301C113.043 25.7244 113.284 26.9716 113.284 28.4716C113.284 29.9318 113.048 31.1648 112.577 32.1705C112.111 33.1705 111.474 33.929 110.668 34.446C109.866 34.9574 108.969 35.2131 107.974 35.2131C107.27 35.2131 106.67 35.0966 106.176 34.8636C105.688 34.6307 105.287 34.3381 104.974 33.9858C104.662 33.6278 104.423 33.267 104.259 32.9034H104.097V35H100.517ZM104.071 28.4545C104.071 29.233 104.179 29.9119 104.395 30.4915C104.611 31.071 104.923 31.5227 105.332 31.8466C105.741 32.1648 106.239 32.3239 106.824 32.3239C107.415 32.3239 107.915 32.1619 108.324 31.8381C108.733 31.5085 109.043 31.054 109.253 30.4744C109.469 29.8892 109.577 29.2159 109.577 28.4545C109.577 27.6989 109.472 27.0341 109.261 26.4602C109.051 25.8864 108.741 25.4375 108.332 25.1136C107.923 24.7898 107.42 24.6278 106.824 24.6278C106.233 24.6278 105.733 24.7841 105.324 25.0966C104.92 25.4091 104.611 25.8523 104.395 26.4261C104.179 27 104.071 27.6761 104.071 28.4545ZM119.337 17.5455V35H115.707V17.5455H119.337ZM128.161 35.2557C126.837 35.2557 125.692 34.9744 124.726 34.4119C123.766 33.8437 123.024 33.054 122.501 32.0426C121.979 31.0256 121.717 29.8466 121.717 28.5057C121.717 27.1534 121.979 25.9716 122.501 24.9602C123.024 23.9432 123.766 23.1534 124.726 22.5909C125.692 22.0227 126.837 21.7386 128.161 21.7386C129.484 21.7386 130.626 22.0227 131.587 22.5909C132.553 23.1534 133.297 23.9432 133.82 24.9602C134.342 25.9716 134.604 27.1534 134.604 28.5057C134.604 29.8466 134.342 31.0256 133.82 32.0426C133.297 33.054 132.553 33.8437 131.587 34.4119C130.626 34.9744 129.484 35.2557 128.161 35.2557ZM128.178 32.4432C128.78 32.4432 129.283 32.2727 129.686 31.9318C130.089 31.5852 130.393 31.1136 130.598 30.517C130.808 29.9205 130.913 29.2415 130.913 28.4801C130.913 27.7188 130.808 27.0398 130.598 26.4432C130.393 25.8466 130.089 25.375 129.686 25.0284C129.283 24.6818 128.78 24.5085 128.178 24.5085C127.57 24.5085 127.058 24.6818 126.643 25.0284C126.234 25.375 125.925 25.8466 125.714 26.4432C125.51 27.0398 125.408 27.7188 125.408 28.4801C125.408 29.2415 125.51 29.9205 125.714 30.517C125.925 31.1136 126.234 31.5852 126.643 31.9318C127.058 32.2727 127.57 32.4432 128.178 32.4432ZM142.862 40.1818C141.686 40.1818 140.678 40.0199 139.837 39.696C139.001 39.3778 138.337 38.9432 137.842 38.392C137.348 37.8409 137.027 37.2216 136.879 36.5341L140.237 36.0824C140.339 36.3438 140.501 36.5881 140.723 36.8153C140.945 37.0426 141.237 37.2244 141.601 37.3608C141.97 37.5028 142.419 37.5739 142.947 37.5739C143.737 37.5739 144.388 37.3807 144.899 36.9943C145.416 36.6136 145.675 35.9744 145.675 35.0767V32.6818H145.521C145.362 33.0455 145.124 33.3892 144.805 33.7131C144.487 34.0369 144.078 34.3011 143.578 34.5057C143.078 34.7102 142.482 34.8125 141.788 34.8125C140.805 34.8125 139.911 34.5852 139.104 34.1307C138.303 33.6705 137.663 32.9687 137.186 32.0256C136.714 31.0767 136.479 29.8778 136.479 28.429C136.479 26.946 136.72 25.7074 137.203 24.7131C137.686 23.7187 138.328 22.9744 139.129 22.4801C139.936 21.9858 140.82 21.7386 141.78 21.7386C142.513 21.7386 143.126 21.8636 143.621 22.1136C144.115 22.358 144.513 22.6648 144.814 23.0341C145.121 23.3977 145.357 23.7557 145.521 24.108H145.658V21.9091H149.263V35.1278C149.263 36.2415 148.99 37.1733 148.445 37.9233C147.899 38.6733 147.143 39.2358 146.178 39.6108C145.217 39.9915 144.112 40.1818 142.862 40.1818ZM142.939 32.0852C143.524 32.0852 144.018 31.9403 144.422 31.6506C144.831 31.3551 145.143 30.9347 145.359 30.3892C145.581 29.8381 145.692 29.179 145.692 28.4119C145.692 27.6449 145.584 26.9801 145.368 26.4176C145.152 25.8494 144.839 25.4091 144.43 25.0966C144.021 24.7841 143.524 24.6278 142.939 24.6278C142.342 24.6278 141.839 24.7898 141.43 25.1136C141.021 25.4318 140.712 25.875 140.501 26.4432C140.291 27.0114 140.186 27.6676 140.186 28.4119C140.186 29.1676 140.291 29.821 140.501 30.3722C140.717 30.9176 141.027 31.3409 141.43 31.642C141.839 31.9375 142.342 32.0852 142.939 32.0852Z" fill="#F8F8F8"/>
<path d="M95.3565 35.3324C94.5128 35.3324 93.7884 35.0341 93.1832 34.4375C92.5866 33.8324 92.2884 33.108 92.2884 32.2642C92.2884 31.429 92.5866 30.7131 93.1832 30.1165C93.7884 29.5199 94.5128 29.2216 95.3565 29.2216C96.1747 29.2216 96.8906 29.5199 97.5043 30.1165C98.1179 30.7131 98.4247 31.429 98.4247 32.2642C98.4247 32.8267 98.2798 33.3423 97.9901 33.8111C97.7088 34.2713 97.3381 34.642 96.8778 34.9233C96.4176 35.196 95.9105 35.3324 95.3565 35.3324Z" fill="#FF57B2"/>
</svg>
