<svg width="112" height="112" viewBox="0 0 112 112" fill="none" xmlns="http://www.w3.org/2000/svg">
<path fill-rule="evenodd" clip-rule="evenodd" d="M56.0503 112C86.8022 112 112 86.8022 112 56.0503C112 25.1965 86.8022 0 56.0503 0C25.1965 0 0 25.1965 0 56.0503C0 86.8022 25.1965 112 56.0503 112Z" fill="#FF57B2"/>
<path fill-rule="evenodd" clip-rule="evenodd" d="M24.5026 35.0186C53.3711 35.0186 77.0792 58.6274 77.0792 87.4958H94.5396C94.5396 49.0052 62.9917 17.5582 24.5026 17.5582V35.0186ZM34.0257 70.0352C38.8874 70.0352 42.756 73.904 42.756 78.7673C42.756 83.627 38.8872 87.4956 34.0257 87.4956C29.1659 87.4956 25.2954 83.6268 25.2954 78.7673C25.2954 73.904 29.1659 70.0352 34.0257 70.0352ZM24.5026 59.5192C39.8783 59.5192 52.4775 72.1201 52.4775 87.4958H70.0354C70.0354 62.4962 49.6016 42.0623 24.5028 42.0623V59.5192H24.5026Z" fill="#1A1D23"/>
</svg>
